<svg width="1280" height="640" viewBox="0 0 1280 640" fill="none" xmlns="http://www.w3.org/2000/svg">
  <defs>
    <filter id="paperShadow" x="-20%" y="-20%" width="140%" height="150%" color-interpolation-filters="sRGB">
      <feDropShadow dx="0" dy="12" stdDeviation="6" flood-color="#813325" flood-opacity="0.22"/>
    </filter>
    <filter id="inkLift" x="-20%" y="-20%" width="140%" height="150%" color-interpolation-filters="sRGB">
      <feDropShadow dx="0" dy="8" stdDeviation="2" flood-color="#34120d" flood-opacity="0.18"/>
    </filter>
    <linearGradient id="flagshipBody" x1="520" y1="170" x2="782" y2="404" gradientUnits="userSpaceOnUse">
      <stop stop-color="#6f84bf"/>
      <stop offset="1" stop-color="#5066a3"/>
    </linearGradient>
    <style>
      .ui { font-family: DejaVu Sans, sans-serif; }
      .mono { font-family: DejaVu Sans Mono, monospace; }
    </style>
  </defs>

  <rect width="1280" height="640" fill="#e96042"/>

  <!-- loose reference-style planning lines -->
  <path d="M28 130C84 24 181 24 252 63C323 101 385 78 433 31C477 -12 560 23 503 82C456 130 508 155 560 126" fill="none" stroke="#f1db73" stroke-width="6" stroke-linecap="round" stroke-linejoin="round" opacity="0.86"/>
  <path d="M846 0C833 62 879 82 933 56C984 32 967 4 980 -16" fill="none" stroke="#f1db73" stroke-width="6" stroke-linecap="round" stroke-linejoin="round" opacity="0.8"/>
  <path d="M944 104C916 166 986 200 1060 188C1128 176 1196 178 1262 228" fill="none" stroke="#f1db73" stroke-width="6" stroke-linecap="round" stroke-linejoin="round" opacity="0.76"/>
  <path d="M24 332C110 294 177 352 130 423C92 482 130 542 224 516" fill="none" stroke="#f1db73" stroke-width="6" stroke-linecap="round" stroke-linejoin="round" opacity="0.72"/>
  <path d="M1080 398C1148 392 1180 418 1214 402C1235 392 1240 411 1218 424" fill="none" stroke="#f1db73" stroke-width="6" stroke-linecap="round" stroke-linejoin="round" opacity="0.72"/>
  <path d="M92 168C128 132 166 136 158 102C154 85 174 82 188 80" fill="none" stroke="#f1db73" stroke-width="6" stroke-linecap="round" stroke-linejoin="round" opacity="0.72"/>

  <!-- top planning cards -->
  <g filter="url(#paperShadow)">
    <g transform="translate(200 104) rotate(-1.3)">
      <rect width="212" height="136" rx="12" fill="#efdc72"/>
      <path d="M25 32C77 25 126 33 176 27" fill="none" stroke="#df5840" stroke-width="4" stroke-linecap="round"/>
      <path d="M26 32L32 96C76 106 91 92 96 58C99 37 126 48 123 92" fill="none" stroke="#df5840" stroke-width="4" stroke-linecap="round" stroke-linejoin="round"/>
      <path d="M162 29H188V54H162Z" fill="none" stroke="#df5840" stroke-width="4" stroke-linejoin="round"/>
      <path d="M154 68H188" stroke="#df5840" stroke-width="4" stroke-linecap="round"/>
      <circle cx="146" cy="106" r="4.5" fill="#df5840"/>
      <circle cx="166" cy="106" r="4.5" fill="#df5840"/>
      <circle cx="186" cy="106" r="4.5" fill="#df5840"/>
    </g>
    <g transform="translate(988 68) rotate(-0.8)">
      <rect width="244" height="72" rx="10" fill="#efdc72"/>
      <text x="20" y="47" class="ui" font-size="34" font-weight="800" fill="#d84d3b">MASTER PLAN</text>
    </g>
    <g transform="translate(1018 186) rotate(1.4)">
      <rect width="226" height="128" rx="12" fill="#efdc72"/>
      <rect x="25" y="24" width="174" height="82" rx="6" fill="none" stroke="#df5840" stroke-width="4"/>
      <path d="M33 49C82 55 104 43 142 29M35 82C78 73 111 76 190 94M69 29C64 58 62 84 54 106M112 29C105 58 117 80 127 106M158 32C138 57 132 78 153 106" fill="none" stroke="#df5840" stroke-width="4" stroke-linecap="round"/>
    </g>
  </g>

  <!-- map surface -->
  <path d="M0 438C132 420 254 442 374 456C485 469 559 446 676 454C796 462 902 433 1027 456C1128 474 1196 455 1280 442V640H0V438Z" fill="#fffbed"/>

  <!-- command routes on the map -->
  <path d="M136 562C242 585 291 545 376 562C472 582 542 536 640 552C738 568 790 525 890 552C982 576 1036 528 1144 554" fill="none" stroke="#456399" stroke-width="6" stroke-linecap="round" stroke-linejoin="round"/>
  <path d="M184 495C246 462 312 471 362 504C425 545 494 489 548 476C618 458 680 491 730 518C792 551 850 495 914 482C984 468 1048 516 1104 492" fill="none" stroke="#456399" stroke-width="6" stroke-linecap="round" stroke-linejoin="round"/>
  <path d="M300 596L334 468L566 468L590 514L696 514L728 468L948 480L972 552L1132 570" fill="none" stroke="#456399" stroke-width="5" stroke-linecap="round" stroke-linejoin="round"/>
  <path d="M370 548C438 522 499 556 456 580C419 600 383 570 424 548C476 520 510 522 558 546C616 576 646 514 704 522C770 531 720 606 780 612C846 618 816 546 872 548C922 550 938 582 904 606" fill="none" stroke="#e95b3f" stroke-width="3" stroke-linecap="round" stroke-linejoin="round"/>
  <path d="M292 532C338 514 374 552 424 544C468 536 498 574 532 556M674 502C697 524 678 550 708 566C734 582 770 553 794 582" fill="none" stroke="#438b65" stroke-width="3" stroke-linecap="round" stroke-linejoin="round"/>

  <!-- terminals as a fleet -->
  <g filter="url(#paperShadow)">
    <g transform="translate(244 396) rotate(-2.5)">
      <path d="M18 74H128L102 104H40L18 74Z" fill="#456399"/>
      <rect width="136" height="78" rx="10" fill="#efdc72"/>
      <text x="20" y="33" class="mono" font-size="15" font-weight="800" fill="#338462">$ build</text>
      <path d="M24 52H110M24 64H78" stroke="#338462" stroke-width="4" stroke-linecap="round"/>
    </g>
    <g transform="translate(382 466) rotate(2.4)">
      <path d="M20 72H132L104 102H42L20 72Z" fill="#438b65"/>
      <rect width="142" height="76" rx="10" fill="#efdc72"/>
      <text x="20" y="32" class="mono" font-size="15" font-weight="800" fill="#456399">$ test</text>
      <path d="M24 51H116M24 63H88" stroke="#456399" stroke-width="4" stroke-linecap="round"/>
    </g>
    <g transform="translate(794 398) rotate(2.2)">
      <path d="M18 76H134L104 106H42L18 76Z" fill="#e95b3f"/>
      <rect width="142" height="80" rx="10" fill="#efdc72"/>
      <text x="20" y="34" class="mono" font-size="15" font-weight="800" fill="#456399">$ deploy</text>
      <path d="M24 54H118M24 66H92" stroke="#456399" stroke-width="4" stroke-linecap="round"/>
    </g>
    <g transform="translate(1018 454) rotate(2.3)">
      <path d="M18 78H136L106 108H42L18 78Z" fill="#438b65"/>
      <rect width="144" height="82" rx="10" fill="#efdc72"/>
      <text x="22" y="34" class="mono" font-size="15" font-weight="800" fill="#e95b3f">$ logs</text>
      <path d="M24 54H118M24 67H82" stroke="#e95b3f" stroke-width="4" stroke-linecap="round"/>
    </g>
    <g transform="translate(86 254) rotate(-0.6)">
      <path d="M14 82H144L110 114H42L14 82Z" fill="#e95b3f"/>
      <rect width="148" height="88" rx="10" fill="#efdc72"/>
      <path d="M22 25H56M22 42H78M22 59H62M96 28H122M96 48H122" stroke="#df5840" stroke-width="4" stroke-linecap="round"/>
      <circle cx="98" cy="68" r="5" fill="#df5840"/>
      <circle cx="124" cy="68" r="5" fill="#df5840"/>
    </g>
  </g>

  <!-- central flagship dispatcher -->
  <g transform="translate(468 72)" filter="url(#inkLift)">
    <path d="M148 30C154 8 184 8 186 32L180 124H142L148 30Z" fill="#efdc72"/>
    <path d="M212 32C218 10 250 10 248 36L242 124H204L212 32Z" fill="#338462"/>
    <path d="M276 32C282 8 315 10 314 36L306 124H268L276 32Z" fill="#456399"/>
    <path d="M344 30C350 8 382 8 382 34L374 124H336L344 30Z" fill="#338462"/>

    <path d="M84 140L160 92L392 100L468 144L400 178H148L84 140Z" fill="#fffdf1" stroke="#456399" stroke-width="5" stroke-linejoin="round"/>
    <path d="M148 178H400L386 380H164L148 178Z" fill="url(#flagshipBody)" stroke="#456399" stroke-width="5" stroke-linejoin="round"/>
    <path d="M84 140L148 178H400L468 144" fill="none" stroke="#456399" stroke-width="5" stroke-linecap="round" stroke-linejoin="round"/>

    <path d="M110 207L210 236M276 236L436 206" fill="none" stroke="#10100f" stroke-width="18" stroke-linecap="round" stroke-linejoin="round"/>
    <ellipse cx="207" cy="240" rx="58" ry="54" fill="#fffdf1" stroke="#10100f" stroke-width="8"/>
    <ellipse cx="330" cy="240" rx="58" ry="54" fill="#fffdf1" stroke="#10100f" stroke-width="8"/>
    <circle cx="209" cy="241" r="14" fill="#10100f"/>
    <circle cx="327" cy="241" r="14" fill="#10100f"/>
    <path d="M204 322C246 352 308 352 354 321C338 370 230 370 204 322Z" fill="#fffdf1"/>
    <path d="M248 334L242 378M286 339L282 384M322 334L316 378" stroke="#5066a3" stroke-width="4" stroke-linecap="round"/>

    <path d="M128 284C40 292 -6 332 8 382C18 418 54 423 86 395" fill="none" stroke="#10100f" stroke-width="17" stroke-linecap="round" stroke-linejoin="round"/>
    <path d="M420 284C528 282 574 326 560 378C550 416 510 424 474 398" fill="none" stroke="#10100f" stroke-width="17" stroke-linecap="round" stroke-linejoin="round"/>
    <path d="M62 316L126 404" fill="none" stroke="#10100f" stroke-width="17" stroke-linecap="round" stroke-linejoin="round"/>
    <path d="M520 326L456 410" fill="none" stroke="#10100f" stroke-width="17" stroke-linecap="round" stroke-linejoin="round"/>

    <g transform="translate(38 340) rotate(-20)">
      <rect x="0" y="0" width="38" height="92" rx="8" fill="#e95b3f"/>
      <path d="M12 90L28 90L20 116Z" fill="#10100f"/>
    </g>
  </g>

  <!-- route endpoints / operator markers -->
  <g>
    <g transform="translate(38 476)"><rect x="0" y="18" width="54" height="52" rx="8" fill="#e95b3f"/><circle cx="27" cy="16" r="16" fill="#e95b3f"/></g>
    <g transform="translate(156 504)"><rect x="0" y="18" width="54" height="52" rx="8" fill="#456399"/><circle cx="27" cy="16" r="16" fill="#456399"/></g>
    <g transform="translate(278 510)"><rect x="0" y="18" width="54" height="52" rx="8" fill="#438b65"/><circle cx="27" cy="16" r="16" fill="#438b65"/></g>
    <g transform="translate(800 554)"><rect x="0" y="18" width="54" height="52" rx="8" fill="#456399"/><circle cx="27" cy="16" r="16" fill="#456399"/></g>
    <g transform="translate(962 560)"><rect x="0" y="18" width="54" height="52" rx="8" fill="#e95b3f"/><circle cx="27" cy="16" r="16" fill="#e95b3f"/></g>
    <g transform="translate(1074 542)"><rect x="0" y="18" width="54" height="52" rx="8" fill="#438b65"/><circle cx="27" cy="16" r="16" fill="#438b65"/></g>
    <g transform="translate(1196 522)"><rect x="0" y="18" width="54" height="52" rx="8" fill="#456399"/><circle cx="27" cy="16" r="16" fill="#456399"/></g>
  </g>

  <g transform="translate(62 586)">
    <text x="0" y="0" class="ui" font-size="54" font-weight="900" fill="#10100f">termfleet</text>
    <text x="286" y="-6" class="ui" font-size="22" font-weight="800" fill="#456399">one master plan, many live terminals</text>
  </g>
</svg>
